HIERARCHY
ROOT Zhanghao:Solving:Hips
{
	OFFSET 0.000000 0.000000 0.000000
	CHANNELS 6 Xposition Yposition Zposition Xrotation Yrotation Zrotation
	JOINT Zhanghao:Solving:Spine
	{
		OFFSET 0.000000 -9.563771 2.098718
		CHANNELS 6 Xposition Yposition Zposition Xrotation Yrotation Zrotation
		JOINT Zhanghao:Solving:Spine1
		{
			OFFSET 0.000000 -9.562875 1.686196
			CHANNELS 6 Xposition Yposition Zposition Xrotation Yrotation Zrotation
			JOINT Zhanghao:Solving:Spine2
			{
				OFFSET 0.000000 -9.673449 0.846319
				CHANNELS 6 Xposition Yposition Zposition Xrotation Yrotation Zrotation
				JOINT Zhanghao:Solving:Spine3
				{
					OFFSET 0.000000 -9.710396 0.000000
					CHANNELS 6 Xposition Yposition Zposition Xrotation Yrotation Zrotation
					JOINT Zhanghao:Solving:Neck
					{
						OFFSET 0.000000 -12.484798 -1.248478
						CHANNELS 6 Xposition Yposition Zposition Xrotation Yrotation Zrotation
						JOINT Zhanghao:Solving:Neck1
						{
							OFFSET 0.000000 -5.748112 -0.502893
							CHANNELS 6 Xposition Yposition Zposition Xrotation Yrotation Zrotation
							JOINT Zhanghao:Solving:Head
							{
								OFFSET 0.000000 -5.682407 -1.001961
								CHANNELS 6 Xposition Yposition Zposition Xrotation Yrotation Zrotation
								JOINT Zhanghao:Solving:HeadEnd
								{
									OFFSET 0.000000 -9.728077 0.000002
									CHANNELS 6 Xposition Yposition Zposition Xrotation Yrotation Zrotation
									End Site
									{
										OFFSET 0.000000 -9.728081 0.000002
									}
								}
							}
						}
					}
					JOINT Zhanghao:Solving:RightShoulder
					{
						OFFSET 0.000000 -8.917713 -5.270916
						CHANNELS 6 Xposition Yposition Zposition Xrotation Yrotation Zrotation
						JOINT Zhanghao:Solving:RightArm
						{
							OFFSET -18.341640 -0.000008 0.000000
							CHANNELS 6 Xposition Yposition Zposition Xrotation Yrotation Zrotation
							JOINT Zhanghao:Solving:RightForeArm
							{
								OFFSET -27.519978 -0.000008 0.000000
								CHANNELS 6 Xposition Yposition Zposition Xrotation Yrotation Zrotation
								JOINT Zhanghao:Solving:RightHand
								{
									OFFSET -22.582626 -0.000008 0.000000
									CHANNELS 6 Xposition Yposition Zposition Xrotation Yrotation Zrotation
									JOINT Zhanghao:Solving:RightHandThumb1
									{
										OFFSET -4.292824 2.781349 -3.192099
										CHANNELS 6 Xposition Yposition Zposition Xrotation Yrotation Zrotation
										End Site
										{
											OFFSET -6.150612 -0.000004 -6.207481
										}
									}
									JOINT Zhanghao:Solving:RightHandMiddle1
									{
										OFFSET -11.447525 -0.000004 0.073382
										CHANNELS 6 Xposition Yposition Zposition Xrotation Yrotation Zrotation
										End Site
										{
											OFFSET -8.738586 -0.000004 0.000000
										}
									}
								}
							}
						}
					}
					JOINT Zhanghao:Solving:LeftShoulder
					{
						OFFSET 0.000000 -8.917713 -5.270916
						CHANNELS 6 Xposition Yposition Zposition Xrotation Yrotation Zrotation
						JOINT Zhanghao:Solving:LeftArm
						{
							OFFSET 18.341640 -0.000008 0.000000
							CHANNELS 6 Xposition Yposition Zposition Xrotation Yrotation Zrotation
							JOINT Zhanghao:Solving:LeftForeArm
							{
								OFFSET 27.519978 -0.000008 0.000000
								CHANNELS 6 Xposition Yposition Zposition Xrotation Yrotation Zrotation
								JOINT Zhanghao:Solving:LeftHand
								{
									OFFSET 22.582626 -0.000008 0.000000
									CHANNELS 6 Xposition Yposition Zposition Xrotation Yrotation Zrotation
									JOINT Zhanghao:Solving:LeftHandThumb1
									{
										OFFSET 4.292824 2.781349 -3.192099
										CHANNELS 6 Xposition Yposition Zposition Xrotation Yrotation Zrotation
										End Site
										{
											OFFSET 6.150612 -0.000004 -6.207481
										}
									}
									JOINT Zhanghao:Solving:LeftHandMiddle1
									{
										OFFSET 11.447525 -0.000004 0.073382
										CHANNELS 6 Xposition Yposition Zposition Xrotation Yrotation Zrotation
										End Site
										{
											OFFSET 8.738586 -0.000004 0.000000
										}
									}
								}
							}
						}
					}
				}
			}
		}
	}
	JOINT Zhanghao:Solving:RightUpLeg
	{
		OFFSET -9.107882 0.000000 0.000000
		CHANNELS 6 Xposition Yposition Zposition Xrotation Yrotation Zrotation
		JOINT Zhanghao:Solving:RightLeg
		{
			OFFSET 0.000000 38.746075 -0.000006
			CHANNELS 6 Xposition Yposition Zposition Xrotation Yrotation Zrotation
			JOINT Zhanghao:Solving:RightFoot
			{
				OFFSET 0.000000 37.141575 -0.000006
				CHANNELS 6 Xposition Yposition Zposition Xrotation Yrotation Zrotation
				JOINT Zhanghao:Solving:RightForeFoot
				{
					OFFSET 0.000000 3.208229 -0.000000
					CHANNELS 6 Xposition Yposition Zposition Xrotation Yrotation Zrotation
					JOINT Zhanghao:Solving:RightToeBase
					{
						OFFSET 0.000000 0.000000 -12.564445
						CHANNELS 6 Xposition Yposition Zposition Xrotation Yrotation Zrotation
						JOINT Zhanghao:Solving:RightToeBaseEnd
						{
							OFFSET 0.000000 0.000000 -4.358174
							CHANNELS 6 Xposition Yposition Zposition Xrotation Yrotation Zrotation
							End Site
							{
								OFFSET 0.000000 -4.358177 0.000000
							}
						}
					}
				}
			}
		}
	}
	JOINT Zhanghao:Solving:LeftUpLeg
	{
		OFFSET 9.107882 0.000000 0.000000
		CHANNELS 6 Xposition Yposition Zposition Xrotation Yrotation Zrotation
		JOINT Zhanghao:Solving:LeftLeg
		{
			OFFSET 0.000000 38.746075 -0.000006
			CHANNELS 6 Xposition Yposition Zposition Xrotation Yrotation Zrotation
			JOINT Zhanghao:Solving:LeftFoot
			{
				OFFSET 0.000000 37.141575 -0.000006
				CHANNELS 6 Xposition Yposition Zposition Xrotation Yrotation Zrotation
				JOINT Zhanghao:Solving:LeftForeFoot
				{
					OFFSET 0.000000 3.208229 -0.000000
					CHANNELS 6 Xposition Yposition Zposition Xrotation Yrotation Zrotation
					JOINT Zhanghao:Solving:LeftToeBase
					{
						OFFSET 0.000000 0.000000 -12.564445
						CHANNELS 6 Xposition Yposition Zposition Xrotation Yrotation Zrotation
						JOINT Zhanghao:Solving:LeftToeBaseEnd
						{
							OFFSET 0.000000 0.000000 -4.448388
							CHANNELS 6 Xposition Yposition Zposition Xrotation Yrotation Zrotation
							End Site
							{
								OFFSET 0.000000 -4.448387 0.000000
							}
						}
					}
				}
			}
		}
	}
}
MOTION
Frames: 4
Frame Time: 0.041667
-6.003305 -103.221184 -81.922630 80.486655 0.775533 -1.223651 0.000000 -9.563769 2.098715 13.426992 -0.204029 2.938835 -0.000000 -9.562881 1.686200 -1.222267 -0.102451 0.178981 -0.000001 -9.673438 0.846318 -0.633049 -1.758741 -0.292944 0.000001 -9.710408 -0.000021 1.226492 0.177700 -1.373920 -0.000001 -12.484801 -1.248525 -8.222022 0.966405 1.125836 -0.000002 -5.748123 -0.502881 2.636787 8.330540 0.940367 0.000003 -5.682424 -1.001941 6.575982 0.491078 0.551820 -0.000001 -9.728069 0.000006 0.000000 0.000001 0.000000 -0.000001 -8.917709 -5.270945 -0.000005 11.601174 0.446879 -18.341635 0.000005 0.000010 7.634569 -64.507735 -57.965650 -27.519968 0.000006 -0.000005 96.481039 -68.191468 96.975818 -22.582638 -0.000011 0.000013 11.768283 -6.351054 62.033185 -4.292841 2.781334 -3.192124 -0.000002 0.000003 -0.000003 -11.447577 -0.000025 0.073367 0.000003 0.000001 0.000001 -0.000001 -8.917709 -5.270945 -0.000002 -7.182024 1.571042 18.341635 0.000010 0.000002 13.174836 47.106411 59.945162 27.519976 -0.000002 -0.000028 175.477860 81.454821 -175.527365 22.582615 -0.000011 0.000019 5.963501 18.273036 -18.425887 4.292813 2.781361 -3.192099 -0.000002 0.000002 0.000006 11.447536 -0.000005 0.073381 0.000002 0.000003 0.000004 -9.107882 -0.000008 0.000010 18.658854 10.101131 3.048921 0.000004 38.746086 -0.000041 -17.085670 0.000001 -0.000001 -0.000008 37.141579 -0.000010 10.611840 31.107349 -12.239965 0.000021 3.208221 -0.000027 0.000001 0.000002 0.000000 0.000014 -0.000004 -12.564457 17.709077 0.000000 -0.000002 0.000004 -0.000007 -4.358165 -0.000000 0.000005 -0.000002 9.107885 -0.000018 -0.000007 21.581323 -4.346634 0.142892 -0.000001 38.746090 -0.000015 -14.023761 -0.000000 -0.000001 -0.000000 37.141575 0.000001 4.044588 -21.747406 0.678564 0.000007 3.208221 -0.000002 0.000000 -0.000003 -0.000000 -0.000008 -0.000020 -12.564460 16.081998 0.000003 0.000001 0.000005 0.000000 -4.448381 -0.000000 0.000002 -0.000000 
-5.986580 -103.215919 -81.923279 80.512685 0.580188 -1.264558 0.000003 -9.563782 2.098741 13.423043 -0.198842 2.933597 -0.000001 -9.562898 1.686202 -1.236344 -0.098556 0.183084 0.000001 -9.673438 0.846323 -0.639495 -1.671361 -0.285027 0.000000 -9.710380 -0.000005 1.228221 0.209818 -1.359547 -0.000000 -12.484799 -1.248449 -8.230132 0.932855 1.092123 -0.000000 -5.748094 -0.502879 2.601055 8.288260 0.970256 0.000003 -5.682390 -1.001948 6.555143 0.486886 0.563811 -0.000002 -9.728085 -0.000003 -0.000000 -0.000001 -0.000000 -0.000000 -8.917713 -5.270900 -0.000007 11.672362 0.534071 -18.341639 0.000002 -0.000011 6.491396 -63.515145 -58.752276 -27.519979 -0.000025 -0.000021 98.188730 -66.413986 98.923570 -22.582636 -0.000013 0.000009 11.327260 -5.962023 62.592291 -4.292799 2.781343 -3.192101 -0.000002 0.000002 0.000002 -11.447506 -0.000019 0.073379 -0.000003 -0.000003 0.000005 -0.000001 -8.917732 -5.270899 -0.000005 -7.256587 1.415614 18.341639 -0.000010 0.000015 13.280061 46.764424 59.671804 27.519983 0.000013 -0.000005 172.970484 81.008653 -173.055519 22.582617 0.000003 -0.000014 5.866632 18.379146 -18.049760 4.292831 2.781354 -3.192099 0.000001 -0.000003 -0.000001 11.447560 -0.000019 0.073383 0.000002 -0.000005 0.000006 -9.107883 -0.000006 0.000030 18.630500 10.349938 3.032244 -0.000007 38.746078 -0.000021 -17.036536 0.000001 -0.000001 0.000004 37.141586 -0.000012 10.551970 31.068475 -12.220951 0.000000 3.208222 -0.000008 0.000001 0.000001 -0.000001 -0.000019 -0.000003 -12.564448 17.781486 0.000001 -0.000002 0.000002 -0.000009 -4.358183 -0.000004 -0.000000 0.000001 9.107886 -0.000006 0.000008 21.569048 -4.127328 0.118572 0.000001 38.746082 -0.000006 -14.102504 -0.000000 -0.000001 -0.000002 37.141579 -0.000009 4.118777 -21.751393 0.667181 -0.000004 3.208221 -0.000013 0.000000 0.000001 0.000000 0.000002 -0.000002 -12.564449 16.071872 -0.000002 0.000002 0.000008 -0.000009 -4.448391 -0.000004 -0.000001 -0.000001 
-5.974504 -103.209824 -81.923080 80.533217 0.391922 -1.290768 -0.000001 -9.563766 2.098684 13.451451 -0.197562 2.961467 0.000001 -9.562861 1.686196 -1.249097 -0.099659 0.189615 0.000000 -9.673442 0.846345 -0.673669 -1.648967 -0.308858 0.000000 -9.710409 -0.000004 1.201245 0.197506 -1.446997 0.000000 -12.484788 -1.248461 -8.220355 0.994202 1.141555 -0.000001 -5.748130 -0.502884 2.546852 8.247434 1.002967 -0.000002 -5.682402 -1.001935 6.537700 0.482906 0.582353 0.000001 -9.728031 0.000003 0.000001 -0.000002 -0.000000 -0.000001 -8.917694 -5.270913 -0.000008 11.904454 0.600525 -18.341635 -0.000013 -0.000010 5.521728 -62.546399 -59.130908 -27.519941 -0.000002 -0.000019 99.881572 -64.919985 100.886716 -22.582619 0.000012 0.000008 11.208841 -5.726096 63.275979 -4.292836 2.781358 -3.192121 0.000002 0.000003 -0.000005 -11.447518 0.000001 0.073368 0.000003 -0.000001 -0.000001 -0.000001 -8.917709 -5.270912 -0.000002 -7.246187 1.276956 18.341633 -0.000011 -0.000002 13.594328 46.950580 59.337077 27.519976 0.000005 -0.000030 165.438383 80.508287 -165.629055 22.582626 -0.000002 0.000003 6.258435 17.900058 -19.636637 4.292807 2.781357 -3.192066 0.000003 0.000000 0.000007 11.447518 -0.000005 0.073417 0.000002 0.000002 0.000001 -9.107882 0.000016 -0.000012 18.615570 10.660941 2.988875 -0.000011 38.746090 -0.000026 -17.006947 -0.000000 -0.000001 0.000004 37.141594 -0.000008 10.510909 30.949961 -12.199140 0.000015 3.208229 -0.000024 0.000001 -0.000005 0.000001 -0.000006 -0.000015 -12.564474 17.824041 0.000003 0.000002 0.000003 -0.000008 -4.358162 -0.000002 0.000011 -0.000002 9.107882 0.000031 -0.000032 21.561703 -3.943398 0.083204 0.000003 38.746098 -0.000014 -14.180730 0.000001 -0.000000 0.000001 37.141602 -0.000031 4.183636 -21.737350 0.660162 0.000008 3.208221 -0.000011 0.000000 0.000000 -0.000000 0.000001 -0.000009 -12.564472 16.072347 0.000000 0.000001 -0.000001 -0.000008 -4.448401 -0.000002 -0.000000 0.000000 
-5.975432 -103.204849 -81.920670 80.567682 0.211561 -1.296849 0.000001 -9.563792 2.098702 13.467671 -0.187239 2.983185 -0.000000 -9.562887 1.686185 -1.261789 -0.096589 0.193284 -0.000001 -9.673436 0.846315 -0.729823 -1.609034 -0.349598 -0.000000 -9.710405 -0.000006 1.180344 0.194752 -1.500210 -0.000000 -12.484786 -1.248489 -8.207605 1.023597 1.169623 0.000001 -5.748076 -0.502908 2.529906 8.192074 1.012862 0.000005 -5.682407 -1.001967 6.500131 0.478448 0.602534 -0.000003 -9.728069 0.000011 0.000000 -0.000001 0.000000 0.000001 -8.917706 -5.270927 -0.000007 12.090622 0.692046 -18.341635 0.000003 0.000004 4.416298 -61.503019 -59.662488 -27.519911 -0.000011 -0.000015 101.487445 -63.496615 102.794245 -22.582624 0.000009 0.000001 11.146096 -5.605017 63.632071 -4.292818 2.781328 -3.192114 0.000001 0.000002 -0.000002 -11.447548 -0.000030 0.073370 0.000000 -0.000001 0.000000 -0.000000 -8.917706 -5.270927 -0.000002 -7.278514 1.121283 18.341644 0.000000 0.000007 13.541268 46.571095 59.269233 27.519966 -0.000005 0.000011 166.531528 80.350783 -166.714877 22.582624 0.000002 -0.000016 6.228171 18.722353 -18.777727 4.292842 2.781359 -3.192104 -0.000002 -0.000003 0.000003 11.447547 -0.000002 0.073366 0.000001 0.000002 -0.000001 -9.107883 -0.000008 -0.000027 18.595036 10.894778 2.927585 0.000003 38.746078 -0.000008 -16.979855 0.000003 -0.000001 -0.000000 37.141590 -0.000007 10.476960 30.893034 -12.185079 -0.000004 3.208221 -0.000016 0.000001 0.000002 0.000001 -0.000011 0.000005 -12.564451 17.830272 -0.000010 0.000004 0.000008 -0.000007 -4.358180 -0.000000 0.000006 -0.000001 9.107883 -0.000018 -0.000005 21.551115 -3.743708 0.017432 -0.000000 38.746086 -0.000045 -14.281825 -0.000000 -0.000001 0.000001 37.141594 -0.000001 4.251826 -21.754503 0.671286 0.000005 3.208221 -0.000005 0.000000 0.000001 -0.000000 0.000005 -0.000012 -12.564457 16.108468 0.000003 0.000000 -0.000000 -0.000008 -4.448361 -0.000003 -0.000003 0.000000 
